<svg width="16" height="16" viewBox="0 0 16 16" fill="none" xmlns="http://www.w3.org/2000/svg">
<g filter="url(#filter0_d_2507_193)">
<path fill-rule="evenodd" clip-rule="evenodd" d="M5.3335 8.50065C5.3335 8.13246 5.63197 7.83398 6.00016 7.83398H10.0002C10.3684 7.83398 10.6668 8.13246 10.6668 8.50065C10.6668 8.86884 10.3684 9.16732 10.0002 9.16732H6.00016C5.63197 9.16732 5.3335 8.86884 5.3335 8.50065Z" fill="#424551"/>
<path fill-rule="evenodd" clip-rule="evenodd" d="M5.3335 11.0007C5.3335 10.6325 5.63197 10.334 6.00016 10.334H8.00016C8.36835 10.334 8.66683 10.6325 8.66683 11.0007C8.66683 11.3688 8.36835 11.6673 8.00016 11.6673H6.00016C5.63197 11.6673 5.3335 11.3688 5.3335 11.0007Z" fill="#424551"/>
<path fill-rule="evenodd" clip-rule="evenodd" d="M6.02877 0.529247C6.1538 0.404222 6.32337 0.333984 6.50018 0.333984H11.0002C12.4729 0.333984 13.6668 1.52789 13.6668 3.00065L13.6668 12.0007C13.6668 13.4734 12.4729 14.6673 11.0002 14.6673H5.00016C3.5274 14.6673 2.33349 13.4734 2.3335 12.0006L2.33351 4.50065C2.33351 4.32384 2.40375 4.15427 2.52877 4.02925L6.02877 0.529247ZM6.33349 2.11015V4.33398H4.10965L6.33349 2.11015ZM3.66684 5.66732L3.66683 12.0006C3.66683 12.737 4.26378 13.334 5.00016 13.334H11.0002C11.7366 13.334 12.3335 12.737 12.3335 12.0007L12.3335 3.00065C12.3335 2.26427 11.7366 1.66732 11.0002 1.66732H7.66682V5.00065C7.66682 5.36884 7.36835 5.66732 7.00016 5.66732H3.66684Z" fill="#424551"/>
</g>
<defs>
<filter id="filter0_d_2507_193" x="-1.6665" y="0.333984" width="19.3335" height="22.334" filterUnits="userSpaceOnUse" color-interpolation-filters="sRGB">
<feFlood flood-opacity="0" result="BackgroundImageFix"/>
<feColorMatrix in="SourceAlpha" type="matrix" values="0 0 0 0 0 0 0 0 0 0 0 0 0 0 0 0 0 0 127 0" result="hardAlpha"/>
<feOffset dy="4"/>
<feGaussianBlur stdDeviation="2"/>
<feComposite in2="hardAlpha" operator="out"/>
<feColorMatrix type="matrix" values="0 0 0 0 0 0 0 0 0 0 0 0 0 0 0 0 0 0 0.25 0"/>
<feBlend mode="normal" in2="BackgroundImageFix" result="effect1_dropShadow_2507_193"/>
<feBlend mode="normal" in="SourceGraphic" in2="effect1_dropShadow_2507_193" result="shape"/>
</filter>
</defs>
</svg>
